<svg xmlns="http://www.w3.org/2000/svg" viewBox="0 0 200 200" width="200" height="200">
  <rect width="200" height="200" fill="#ffffff"/>
  <rect x="8" y="8" width="56" height="56" fill="#0f172a"/>
  <rect x="16" y="16" width="40" height="40" fill="#ffffff"/>
  <rect x="24" y="24" width="24" height="24" fill="#0f172a"/>
  <rect x="136" y="8" width="56" height="56" fill="#0f172a"/>
  <rect x="144" y="16" width="40" height="40" fill="#ffffff"/>
  <rect x="152" y="24" width="24" height="24" fill="#0f172a"/>
  <rect x="8" y="136" width="56" height="56" fill="#0f172a"/>
  <rect x="16" y="144" width="40" height="40" fill="#ffffff"/>
  <rect x="24" y="152" width="24" height="24" fill="#0f172a"/>
  <g fill="#0f172a">
    <rect x="72" y="12" width="8" height="8"/><rect x="88" y="12" width="8" height="8"/><rect x="104" y="12" width="8" height="8"/>
    <rect x="72" y="28" width="8" height="8"/><rect x="96" y="28" width="8" height="8"/><rect x="120" y="28" width="8" height="8"/>
    <rect x="72" y="44" width="8" height="8"/><rect x="88" y="44" width="8" height="8"/><rect x="112" y="44" width="8" height="8"/>
    <rect x="72" y="72" width="8" height="8"/><rect x="88" y="88" width="8" height="8"/><rect x="104" y="72" width="8" height="8"/>
    <rect x="120" y="72" width="8" height="8"/><rect x="136" y="88" width="8" height="8"/><rect x="152" y="72" width="8" height="8"/>
    <rect x="72" y="104" width="8" height="8"/><rect x="96" y="112" width="8" height="8"/><rect x="120" y="104" width="8" height="8"/>
    <rect x="144" y="120" width="8" height="8"/><rect x="168" y="104" width="8" height="8"/><rect x="184" y="120" width="8" height="8"/>
    <rect x="72" y="136" width="8" height="8"/><rect x="88" y="152" width="8" height="8"/><rect x="104" y="168" width="8" height="8"/>
    <rect x="120" y="144" width="8" height="8"/><rect x="136" y="160" width="8" height="8"/><rect x="152" y="176" width="8" height="8"/>
    <rect x="168" y="144" width="8" height="8"/><rect x="184" y="160" width="8" height="8"/><rect x="176" y="184" width="8" height="8"/>
  </g>
  <rect x="78" y="78" width="44" height="44" rx="6" fill="#356ab0"/>
  <text x="100" y="98" text-anchor="middle" fill="#ffffff" font-family="Arial,sans-serif" font-size="11" font-weight="700">HDS</text>
  <text x="100" y="112" text-anchor="middle" fill="#ffffff" font-family="Arial,sans-serif" font-size="8">UPI</text>
</svg>
